<?xml version="1.0" standalone="no"?><svg xmlns:xlink="http://www.w3.org/1999/xlink" xmlns="http://www.w3.org/2000/svg" viewBox="0 0 1000 399.99209486166006" preserveAspectRatio="xMaxYMax slice"><g transform="scale(0.6587615283267457)"><rect x="0" y="0" width="1518" height="607.2" fill="#ffffff"/><rect x="0" y="0" width="151.8" height="151.8" fill="#68adea"/><path d="M 0 0 A 151.8 151.8 0 0 0 151.8 151.8 L 151.8 0" fill="#9e7ff3"/><rect x="151.8" y="0" width="151.8" height="151.8" fill="#72b3eb"/><rect x="151.8" y="0" width="151.8" height="151.8" fill="#ffe1e6"/><rect x="303.6" y="0" width="151.8" height="151.8" fill="#479ce5"/><polygon points="303.6,0 455.40000000000003,0 303.6,151.8" fill="#ff91a3"/><rect x="455.40000000000003" y="0" width="151.8" height="151.8" fill="#ffffff"/><rect x="455.4" y="0" width="75.9" height="75.9" fill="#ffebee"/><polygon points="455.4,0 531.3,0 455.4,75.9" fill="#a385f3"/><rect x="531.3" y="0" width="75.9" height="75.9" fill="#8d68f1"/><polygon points="531.3,0 607.1999999999999,0 607.1999999999999,75.9" fill="#ffe9ed"/><rect x="455.4" y="75.9" width="75.9" height="75.9" fill="#bca7f7"/><polygon points="531.3,75.9 531.3,151.8 455.4,151.8" fill="#fffdfd"/><rect x="531.3" y="75.9" width="75.9" height="75.9" fill="#ffa7b6"/><polygon points="531.3,75.9 607.1999999999999,151.8 531.3,151.8" fill="#ffe0e5"/><rect x="607.2" y="0" width="151.8" height="151.8" fill="#a689f4"/><rect x="607.2" y="0" width="151.8" height="151.8" fill="#ff506c"/><rect x="759" y="0" width="151.8" height="151.8" fill="#ffffff"/><rect x="759" y="0" width="75.9" height="75.9" fill="#ff8196"/><circle cx="796.95" cy="37.95" r="37.95" fill="#ffdbe1"/><rect x="834.9" y="0" width="75.9" height="75.9" fill="#ff6a82"/><rect x="834.9" y="0" width="75.9" height="75.9" fill="#8cc1ef"/><rect x="759" y="75.9" width="75.9" height="75.9" fill="#9ecaf1"/><circle cx="796.95" cy="113.85000000000001" r="37.95" fill="#80baed"/><rect x="834.9" y="75.9" width="75.9" height="75.9" fill="#ff8da0"/><rect x="834.9" y="75.9" width="75.9" height="75.9" fill="#fffcfd"/><rect x="910.8000000000001" y="0" width="151.8" height="151.8" fill="#ffffff"/><rect x="910.8" y="0" width="75.9" height="75.9" fill="#f0ebfd"/><polygon points="910.8,0 986.6999999999999,0 910.8,75.9" fill="#5aa5e8"/><rect x="986.7" y="0" width="75.9" height="75.9" fill="#ff7e93"/><polygon points="1062.6000000000001,0 1062.6000000000001,75.9 986.7,75.9" fill="#8159ef"/><rect x="910.8" y="75.9" width="75.9" height="75.9" fill="#ffc4cd"/><polygon points="910.8,75.9 986.6999999999999,75.9 986.6999999999999,151.8" fill="#f1f8fd"/><rect x="986.7" y="75.9" width="75.9" height="75.9" fill="#8c67f1"/><polygon points="986.7,75.9 1062.6000000000001,151.8 986.7,151.8" fill="#9573f2"/><rect x="1062.6000000000001" y="0" width="151.8" height="151.8" fill="#ffffff"/><rect x="1062.6" y="0" width="75.9" height="75.9" fill="#dacefa"/><circle cx="1100.55" cy="37.95" r="37.95" fill="#dacffa"/><rect x="1138.5" y="0" width="75.9" height="75.9" fill="#a6cff2"/><rect x="1138.5" y="0" width="75.9" height="75.9" fill="#8057ef"/><rect x="1062.6" y="75.9" width="75.9" height="75.9" fill="#8cc1ef"/><circle cx="1100.55" cy="113.85000000000001" r="37.95" fill="#ffdfe4"/><rect x="1138.5" y="75.9" width="75.9" height="75.9" fill="#d1c3f9"/><rect x="1138.5" y="75.9" width="75.9" height="75.9" fill="#78b6ec"/><rect x="1214.4" y="0" width="151.8" height="151.8" fill="#ffffff"/><rect x="1214.4" y="0" width="75.9" height="75.9" fill="#e0eefb"/><path d="M 1214.4 75.9 A 75.9 75.9 0 0 1 1290.3000000000002 0 L 1290.3000000000002 18.975 A 56.925000000000004 56.925000000000004 0 0 0 1233.375 75.9" fill="#ab90f4"/><rect x="1290.3" y="0" width="75.9" height="75.9" fill="#ffb5c1"/><path d="M 1290.3 0 A 75.9 75.9 0 0 1 1366.2 75.9 L 1347.225 75.9 A 56.925000000000004 56.925000000000004 0 0 0 1290.3 18.975" fill="#ab8ff4"/><rect x="1214.4" y="75.9" width="75.9" height="75.9" fill="#69aeea"/><path d="M 1214.4 75.9 A 75.9 75.9 0 0 0 1290.3000000000002 151.8 L 1290.3000000000002 132.82500000000002 A 56.925000000000004 56.925000000000004 0 0 1 1233.375 75.9" fill="#f9f8fe"/><rect x="1290.3" y="75.9" width="75.9" height="75.9" fill="#bba6f7"/><path d="M 1290.3 151.8 A 75.9 75.9 0 0 0 1366.2 75.9 L 1347.225 75.9 A 56.925000000000004 56.925000000000004 0 0 1 1290.3 132.82500000000002" fill="#b8a1f6"/><rect x="1366.2" y="0" width="151.8" height="151.8" fill="#ffffff"/><rect x="1366.2" y="0" width="75.9" height="75.9" fill="#ffbac5"/><path d="M 1366.2 75.9 A 75.9 75.9 0 0 1  1442.1000000000001 0 L 1442.1000000000001 75.9" fill="#6b3ced"/><rect x="1442.1" y="0" width="75.9" height="75.9" fill="#6eb1eb"/><path d="M 1442.1 0 A 75.9 75.9 0 0 1 1518 75.9 L 1442.1 75.9" fill="#f7fafe"/><rect x="1366.2" y="75.9" width="75.9" height="75.9" fill="#78b6ec"/><path d="M 1366.2 75.9 A 75.9 75.9 0 0 0 1442.1000000000001 151.8 L 1442.1000000000001 75.9" fill="#c3def7"/><rect x="1442.1" y="75.9" width="75.9" height="75.9" fill="#916ef1"/><path d="M 1442.1 151.8 A 75.9 75.9 0 0 0 1518 75.9 L 1442.1 75.9" fill="#ffa4b3"/><rect x="0" y="151.8" width="151.8" height="151.8" fill="#9c7cf3"/><path d="M 0 151.8 A 151.8 151.8 0 0 0 151.8 303.6 L 151.8 151.8" fill="#ffb1be"/><rect x="151.8" y="151.8" width="151.8" height="151.8" fill="#ffffff"/><rect x="151.8" y="151.8" width="75.9" height="75.9" fill="#ff899c"/><polygon points="151.8,151.8 227.70000000000002,151.8 151.8,227.70000000000002" fill="#ffe1e6"/><rect x="227.7" y="151.8" width="75.9" height="75.9" fill="#f5f2fe"/><polygon points="227.7,151.8 303.6,151.8 303.6,227.70000000000002" fill="#774bee"/><rect x="151.8" y="227.7" width="75.9" height="75.9" fill="#c3dff7"/><polygon points="151.8,227.7 227.70000000000002,303.6 151.8,303.6" fill="#ffc7d0"/><rect x="227.7" y="227.7" width="75.9" height="75.9" fill="#ff98a9"/><polygon points="303.6,227.7 303.6,303.6 227.7,303.6" fill="#ffd4db"/><rect x="303.6" y="151.8" width="151.8" height="151.8" fill="#a88cf4"/><polygon points="303.6,151.8 455.40000000000003,303.6 303.6,303.6" fill="#c3aff7"/><rect x="455.40000000000003" y="151.8" width="151.8" height="151.8" fill="#ffffff"/><rect x="455.4" y="151.8" width="75.9" height="75.9" fill="#ded3fb"/><path d="M 455.4 227.70000000000002 A 75.9 75.9 0 0 0 531.3 151.8 L 455.4 151.8" fill="#7245ed"/><rect x="531.3" y="151.8" width="75.9" height="75.9" fill="#84bcee"/><path d="M 531.3 151.8 A 75.9 75.9 0 0 0 607.1999999999999 227.70000000000002 L 607.1999999999999 151.8" fill="#add2f3"/><rect x="455.4" y="227.7" width="75.9" height="75.9" fill="#f6f3fe"/><path d="M 455.4 227.7 A 75.9 75.9 0 0 1 531.3 303.6 L 455.4 303.6" fill="#f4f1fe"/><rect x="531.3" y="227.7" width="75.9" height="75.9" fill="#83bcee"/><path d="M 531.3 303.6 A 75.9 75.9 0 0 1  607.1999999999999 227.7 L 607.1999999999999 303.6" fill="#d6e9f9"/><rect x="607.2" y="151.8" width="151.8" height="151.8" fill="#ff5772"/><rect x="607.2" y="151.8" width="151.8" height="151.8" fill="#ff788e"/><rect x="759" y="151.8" width="151.8" height="151.8" fill="#ffffff"/><rect x="759" y="151.8" width="75.9" height="75.9" fill="#d7cafa"/><path d="M 759 227.70000000000002 A 75.9 75.9 0 0 1 834.9 151.8 L 834.9 170.775 A 56.925000000000004 56.925000000000004 0 0 0 777.975 227.70000000000002" fill="#b8d9f5"/><rect x="834.9" y="151.8" width="75.9" height="75.9" fill="#fefdff"/><path d="M 834.9 151.8 A 75.9 75.9 0 0 1 910.8 227.70000000000002 L 891.8249999999999 227.70000000000002 A 56.925000000000004 56.925000000000004 0 0 0 834.9 170.775" fill="#ffdde3"/><rect x="759" y="227.7" width="75.9" height="75.9" fill="#449ae5"/><path d="M 759 227.7 A 75.9 75.9 0 0 0 834.9 303.6 L 834.9 284.625 A 56.925000000000004 56.925000000000004 0 0 1 777.975 227.7" fill="#ffe0e5"/><rect x="834.9" y="227.7" width="75.9" height="75.9" fill="#ffd7dd"/><path d="M 834.9 303.6 A 75.9 75.9 0 0 0 910.8 227.7 L 891.8249999999999 227.7 A 56.925000000000004 56.925000000000004 0 0 1 834.9 284.625" fill="#4fa0e6"/><rect x="910.8000000000001" y="151.8" width="151.8" height="151.8" fill="#ffffff"/><rect x="910.8" y="151.8" width="75.9" height="75.9" fill="#90c3ef"/><circle cx="948.75" cy="189.75" r="37.95" fill="#ffa1b0"/><rect x="986.7" y="151.8" width="75.9" height="75.9" fill="#f9f7fe"/><rect x="986.7" y="151.8" width="75.9" height="75.9" fill="#fffcfc"/><rect x="910.8" y="227.7" width="75.9" height="75.9" fill="#6aafea"/><circle cx="948.75" cy="265.65" r="37.95" fill="#8ac0ef"/><rect x="986.7" y="227.7" width="75.9" height="75.9" fill="#ffb4c0"/><rect x="986.7" y="227.7" width="75.9" height="75.9" fill="#faf9fe"/><rect x="1062.6" y="151.8" width="151.8" height="151.8" fill="#ff637d"/><polygon points="1062.6,151.8 1214.3999999999999,151.8 1214.3999999999999,303.6" fill="#5aa5e8"/><rect x="1214.4" y="151.8" width="151.8" height="151.8" fill="#81bbed"/><polygon points="1366.2,151.8 1366.2,303.6 1214.4,303.6" fill="#bfaaf7"/><rect x="1366.2" y="151.8" width="151.8" height="151.8" fill="#ffffff"/><rect x="1366.2" y="151.8" width="75.9" height="75.9" fill="#9573f2"/><polygon points="1366.2,151.8 1442.1000000000001,151.8 1366.2,227.70000000000002" fill="#ffe7eb"/><rect x="1442.1" y="151.8" width="75.9" height="75.9" fill="#ff647d"/><polygon points="1442.1,151.8 1518,151.8 1518,227.70000000000002" fill="#bcdbf6"/><rect x="1366.2" y="227.7" width="75.9" height="75.9" fill="#b2d6f4"/><polygon points="1442.1000000000001,227.7 1442.1000000000001,303.6 1366.2,303.6" fill="#ffbdc8"/><rect x="1442.1" y="227.7" width="75.9" height="75.9" fill="#ffc1cb"/><polygon points="1442.1,227.7 1518,303.6 1442.1,303.6" fill="#e7f2fc"/><rect x="0" y="303.6" width="151.8" height="151.8" fill="#ffffff"/><rect x="0" y="303.6" width="75.9" height="75.9" fill="#774bee"/><path d="M 0 303.6 A 75.9 75.9 0 0 1 75.9 379.5 L 0 379.5" fill="#a589f4"/><rect x="75.9" y="303.6" width="75.9" height="75.9" fill="#ff5f79"/><path d="M 75.9 379.5 A 75.9 75.9 0 0 1  151.8 303.6 L 151.8 379.5" fill="#ffb1bd"/><rect x="0" y="379.5" width="75.9" height="75.9" fill="#63abe9"/><path d="M 0 455.4 A 75.9 75.9 0 0 0 75.9 379.5 L 0 379.5" fill="#fff0f2"/><rect x="75.9" y="379.5" width="75.9" height="75.9" fill="#f6fafe"/><path d="M 75.9 379.5 A 75.9 75.9 0 0 0 151.8 455.4 L 151.8 379.5" fill="#d9cdfa"/><rect x="151.8" y="303.6" width="151.8" height="151.8" fill="#ffffff"/><rect x="151.8" y="303.6" width="75.9" height="75.9" fill="#93c4f0"/><path d="M 151.8 379.5 A 75.9 75.9 0 0 1  227.70000000000002 303.6 L 227.70000000000002 379.5" fill="#bddbf6"/><rect x="227.7" y="303.6" width="75.9" height="75.9" fill="#ffbec9"/><path d="M 227.7 303.6 A 75.9 75.9 0 0 1 303.6 379.5 L 227.7 379.5" fill="#ffb8c4"/><rect x="151.8" y="379.5" width="75.9" height="75.9" fill="#7f55ef"/><path d="M 151.8 379.5 A 75.9 75.9 0 0 0 227.70000000000002 455.4 L 227.70000000000002 379.5" fill="#f4f1fe"/><rect x="227.7" y="379.5" width="75.9" height="75.9" fill="#ff8094"/><path d="M 227.7 455.4 A 75.9 75.9 0 0 0 303.6 379.5 L 227.7 379.5" fill="#ff889b"/><rect x="303.6" y="303.6" width="151.8" height="151.8" fill="#ffecef"/><path d="M 303.6 455.40000000000003 A 151.8 151.8 0 0 1  455.40000000000003 303.6 L 455.40000000000003 455.40000000000003" fill="#ffd8df"/><rect x="455.40000000000003" y="303.6" width="151.8" height="151.8" fill="#ffffff"/><rect x="455.4" y="303.6" width="75.9" height="75.9" fill="#f3f9fd"/><circle cx="493.34999999999997" cy="341.55" r="37.95" fill="#9978f2"/><rect x="531.3" y="303.6" width="75.9" height="75.9" fill="#7ab7ec"/><rect x="531.3" y="303.6" width="75.9" height="75.9" fill="#ff95a7"/><rect x="455.4" y="379.5" width="75.9" height="75.9" fill="#ffd7dd"/><circle cx="493.34999999999997" cy="417.45" r="37.95" fill="#f6f3fe"/><rect x="531.3" y="379.5" width="75.9" height="75.9" fill="#c2aff7"/><rect x="531.3" y="379.5" width="75.9" height="75.9" fill="#ff9cac"/><rect x="607.2" y="303.6" width="151.8" height="151.8" fill="#ded3fb"/><rect x="607.2" y="303.6" width="151.8" height="151.8" fill="#9776f2"/><rect x="759" y="303.6" width="151.8" height="151.8" fill="#ffacb9"/><polygon points="759,303.6 910.8,455.40000000000003 759,455.40000000000003" fill="#e3f0fb"/><rect x="910.8" y="303.6" width="151.8" height="151.8" fill="#64abe9"/><polygon points="910.8,303.6 1062.6,303.6 1062.6,455.40000000000003" fill="#a1ccf2"/><rect x="1062.6" y="303.6" width="151.8" height="151.8" fill="#9a79f2"/><path d="M 1062.6 455.40000000000003 A 151.8 151.8 0 0 1  1214.3999999999999 303.6 L 1062.6 455.40000000000003 A 151.8 151.8 0 0 0 1214.3999999999999 303.6" fill="#c9b7f8"/><rect x="1214.4" y="303.6" width="151.8" height="151.8" fill="#51a1e6"/><polygon points="1214.4,303.6 1366.2,455.40000000000003 1214.4,455.40000000000003" fill="#ff6881"/><rect x="1366.2" y="303.6" width="151.8" height="151.8" fill="#ffffff"/><rect x="1366.2" y="303.6" width="75.9" height="75.9" fill="#ffb8c3"/><circle cx="1404.15" cy="341.55" r="37.95" fill="#ff5c76"/><rect x="1442.1" y="303.6" width="75.9" height="75.9" fill="#ffd4db"/><rect x="1442.1" y="303.6" width="75.9" height="75.9" fill="#ff9dad"/><rect x="1366.2" y="379.5" width="75.9" height="75.9" fill="#ff657e"/><circle cx="1404.15" cy="417.45" r="37.95" fill="#ff6c84"/><rect x="1442.1" y="379.5" width="75.9" height="75.9" fill="#ffdce2"/><rect x="1442.1" y="379.5" width="75.9" height="75.9" fill="#4c9ee6"/><rect x="0" y="455.40000000000003" width="151.8" height="151.8" fill="#ffffff"/><rect x="0" y="455.4" width="75.9" height="75.9" fill="#9c7cf3"/><polygon points="0,455.4 75.9,455.4 0,531.3" fill="#ff93a4"/><rect x="75.9" y="455.4" width="75.9" height="75.9" fill="#ffdde2"/><polygon points="75.9,455.4 151.8,455.4 151.8,531.3" fill="#ff657e"/><rect x="0" y="531.3" width="75.9" height="75.9" fill="#4a9de6"/><polygon points="0,531.3 75.9,607.1999999999999 0,607.1999999999999" fill="#ffd2da"/><rect x="75.9" y="531.3" width="75.9" height="75.9" fill="#ff6b84"/><polygon points="151.8,531.3 151.8,607.1999999999999 75.9,607.1999999999999" fill="#fbfafe"/><rect x="151.8" y="455.40000000000003" width="151.8" height="151.8" fill="#ffffff"/><rect x="151.8" y="455.4" width="75.9" height="75.9" fill="#ffb6c2"/><path d="M 151.8 531.3 A 75.9 75.9 0 0 0 227.70000000000002 455.4 L 151.8 455.4" fill="#a2ccf2"/><rect x="227.7" y="455.4" width="75.9" height="75.9" fill="#6a3aec"/><path d="M 227.7 455.4 A 75.9 75.9 0 0 0 303.6 531.3 L 303.6 455.4" fill="#b9d9f5"/><rect x="151.8" y="531.3" width="75.9" height="75.9" fill="#58a4e7"/><path d="M 151.8 531.3 A 75.9 75.9 0 0 1 227.70000000000002 607.1999999999999 L 151.8 607.1999999999999" fill="#bea9f7"/><rect x="227.7" y="531.3" width="75.9" height="75.9" fill="#cae2f7"/><path d="M 227.7 607.1999999999999 A 75.9 75.9 0 0 1  303.6 531.3 L 303.6 607.1999999999999" fill="#8862f0"/><rect x="303.6" y="455.40000000000003" width="151.8" height="151.8" fill="#ffffff"/><rect x="303.6" y="455.4" width="75.9" height="75.9" fill="#fffafb"/><polygon points="303.6,455.4 379.5,455.4 303.6,531.3" fill="#60a9e9"/><rect x="379.5" y="455.4" width="75.9" height="75.9" fill="#f1f7fd"/><polygon points="455.4,455.4 455.4,531.3 379.5,531.3" fill="#ff758c"/><rect x="303.6" y="531.3" width="75.9" height="75.9" fill="#ad93f5"/><polygon points="303.6,531.3 379.5,531.3 379.5,607.1999999999999" fill="#906df1"/><rect x="379.5" y="531.3" width="75.9" height="75.9" fill="#ffb0bc"/><polygon points="379.5,531.3 455.4,607.1999999999999 379.5,607.1999999999999" fill="#e8f2fc"/><rect x="455.4" y="455.4" width="151.8" height="151.8" fill="#e8f3fc"/><polygon points="455.4,455.4 607.2,607.2 455.4,607.2" fill="#bda8f7"/><rect x="607.2" y="455.4" width="151.8" height="151.8" fill="#e9f3fc"/><polygon points="607.2,455.4 759,607.2 607.2,607.2" fill="#ffe4e9"/><rect x="759" y="455.4" width="151.8" height="151.8" fill="#cde4f8"/><rect x="759" y="455.4" width="151.8" height="151.8" fill="#ffe0e5"/><rect x="910.8" y="455.4" width="151.8" height="151.8" fill="#4c9ee6"/><rect x="910.8" y="455.4" width="151.8" height="151.8" fill="#ffd3da"/><rect x="1062.6" y="455.4" width="151.8" height="151.8" fill="#dbd0fb"/><polygon points="1062.6,455.4 1214.3999999999999,607.2 1062.6,607.2" fill="#8963f0"/><rect x="1214.4" y="455.40000000000003" width="151.8" height="151.8" fill="#ffffff"/><rect x="1214.4" y="455.4" width="75.9" height="75.9" fill="#ebe4fc"/><path d="M 1214.4 531.3 A 75.9 75.9 0 0 0 1290.3000000000002 455.4 L 1214.4 455.4" fill="#e4f0fb"/><rect x="1290.3" y="455.4" width="75.9" height="75.9" fill="#ff627c"/><path d="M 1290.3 455.4 A 75.9 75.9 0 0 0 1366.2 531.3 L 1366.2 455.4" fill="#ffdbe1"/><rect x="1214.4" y="531.3" width="75.9" height="75.9" fill="#50a0e6"/><path d="M 1214.4 531.3 A 75.9 75.9 0 0 1 1290.3000000000002 607.1999999999999 L 1214.4 607.1999999999999" fill="#ff5e79"/><rect x="1290.3" y="531.3" width="75.9" height="75.9" fill="#57a4e7"/><path d="M 1290.3 607.1999999999999 A 75.9 75.9 0 0 1  1366.2 531.3 L 1366.2 607.1999999999999" fill="#ff98a9"/><rect x="1366.2" y="455.4" width="151.8" height="151.8" fill="#6e40ed"/><rect x="1366.2" y="455.4" width="151.8" height="151.8" fill="#ffbbc6"/></g></svg>