<svg width="968" height="900" viewBox="0 0 968 900" fill="none" xmlns="http://www.w3.org/2000/svg">
<rect opacity="0.111111" width="415.408" height="436.244" rx="82.0358" transform="matrix(-0.304321 0.95257 -0.952395 -0.304866 798.562 265.894)" stroke="#E672BD" stroke-width="0.592481" stroke-linecap="round"/>
<rect opacity="0.222222" width="423.612" height="444.448" rx="82.0358" transform="matrix(-0.304321 0.95257 -0.952395 -0.304866 795.952 271.074)" stroke="#DA6DC5" stroke-width="0.774782" stroke-linecap="round"/>
<rect opacity="0.333333" width="431.815" height="452.651" rx="82.0358" transform="matrix(-0.304321 0.95257 -0.952395 -0.304866 793.342 276.255)" stroke="#CE69CE" stroke-width="0.957084" stroke-linecap="round"/>
<rect opacity="0.444444" width="440.019" height="460.855" rx="82.0358" transform="matrix(-0.304321 0.95257 -0.952395 -0.304866 790.733 281.436)" stroke="#C265D6" stroke-width="1.13939" stroke-linecap="round"/>
<rect opacity="0.555556" width="448.222" height="469.058" rx="82.0358" transform="matrix(-0.304321 0.95257 -0.952395 -0.304866 788.123 286.616)" stroke="#B660DE" stroke-width="1.32169" stroke-linecap="round"/>
<rect opacity="0.666667" width="456.426" height="477.262" rx="82.0358" transform="matrix(-0.304321 0.95257 -0.952395 -0.304866 785.513 291.797)" stroke="#AA5CE6" stroke-width="1.50399" stroke-linecap="round"/>
<rect opacity="0.777778" width="464.63" height="485.465" rx="82.0358" transform="matrix(-0.304321 0.95257 -0.952395 -0.304866 782.903 296.977)" stroke="#9E58EF" stroke-width="1.68629" stroke-linecap="round"/>
<rect opacity="0.888889" width="472.833" height="493.669" rx="82.0358" transform="matrix(-0.304321 0.95257 -0.952395 -0.304866 780.293 302.158)" stroke="#9253F7" stroke-width="1.86859" stroke-linecap="round"/>
<rect width="481.037" height="501.873" rx="82.0358" transform="matrix(-0.304321 0.95257 -0.952395 -0.304866 777.684 307.338)" stroke="#864FFF" stroke-width="2.05089" stroke-linecap="round"/>
</svg>
