<svg width="1424" height="1312" viewBox="0 0 1424 1312" fill="none" xmlns="http://www.w3.org/2000/svg">
<path opacity="0.0526316" d="M935.447 1159.53C847.503 1175.44 758.62 1169.26 673.992 1123.61L514.046 570.302L1067.93 412.376C1151.54 459.898 1204.42 531.068 1237.58 614.049C1226.15 617.223 1124.37 645.391 1022.84 673.489C969.249 688.32 915.728 703.13 875.605 714.233L827.135 727.645L813.56 731.401L809.984 732.391L809.068 732.645L808.836 732.709L808.777 732.725L808.763 732.729C808.759 732.73 808.758 732.73 809.022 733.684L808.758 732.73L807.793 732.997L808.071 733.959C813.46 752.59 824.891 790.797 837.154 831.782C838.138 835.073 839.128 838.382 840.121 841.7C853.477 886.346 867.316 932.662 875.073 959.488C882.834 986.327 897.843 1036.03 910.994 1079.31C919.404 1106.99 927.051 1132.03 931.558 1146.79C933.501 1153.15 934.861 1157.6 935.447 1159.53Z" stroke="url(#paint0_linear)" stroke-width="1.97868"/>
<path opacity="0.105263" d="M904.29 1161.29C815.845 1174.11 727.232 1164.84 644.249 1116.26L503.71 557.709L1062.77 419.21C1144.67 469.621 1195.03 542.593 1225.28 626.681C1213.74 629.454 1111.05 654.053 1008.59 678.59C954.517 691.542 900.511 704.475 860.026 714.171L811.117 725.883L797.42 729.164L793.811 730.028L792.886 730.249L792.652 730.305L792.593 730.319L792.578 730.323C792.575 730.324 792.574 730.324 792.804 731.286L792.574 730.324L791.6 730.557L791.845 731.528C796.58 750.334 806.669 788.912 817.492 830.295C818.363 833.622 819.237 836.967 820.115 840.322C831.905 885.407 844.118 932.178 850.934 959.258C857.754 986.352 871.02 1036.55 882.652 1080.26C890.091 1108.21 896.859 1133.51 900.849 1148.41C902.569 1154.84 903.772 1159.34 904.29 1161.29Z" stroke="url(#paint1_linear)" stroke-width="1.97868"/>
<path opacity="0.157895" d="M872.9 1161.88C784.061 1171.61 695.826 1159.25 614.588 1107.8L493.628 544.69L1057.18 425.786C1137.27 479.025 1185.06 553.71 1212.35 638.802C1200.73 641.171 1097.23 662.171 993.986 683.118C939.489 694.174 885.066 705.215 844.266 713.492L794.979 723.49L781.175 726.29L777.539 727.028L776.607 727.217L776.371 727.265L776.311 727.277L776.296 727.28C776.293 727.281 776.291 727.281 776.488 728.251L776.291 727.281L775.311 727.48L775.521 728.459C779.597 747.419 788.334 786.325 797.706 828.061C798.46 831.416 799.217 834.79 799.977 838.173C810.186 883.642 820.76 930.811 826.627 958.112C832.497 985.427 844.003 1036.06 854.102 1080.15C860.561 1108.34 866.443 1133.86 869.91 1148.89C871.404 1155.38 872.45 1159.91 872.9 1161.88Z" stroke="url(#paint2_linear)" stroke-width="1.97868"/>
<path opacity="0.210526" d="M841.316 1161.3C752.192 1167.93 664.442 1152.5 585.049 1098.25L483.816 531.254L1051.17 432.089C1129.36 488.091 1174.51 564.398 1198.82 650.391C1187.12 652.353 1082.95 669.728 979.037 687.059C924.188 696.207 869.412 705.342 828.349 712.189L778.743 720.462L764.849 722.779L761.19 723.389L760.251 723.545L760.014 723.585L759.954 723.595L759.939 723.597C759.936 723.598 759.934 723.598 760.097 724.574L759.934 723.598L758.947 723.763L759.123 724.748C762.535 743.839 769.909 783.026 777.819 825.064C778.455 828.444 779.094 831.842 779.735 835.249C788.351 881.047 797.273 928.556 802.183 956.046C807.096 983.549 816.828 1034.55 825.383 1078.96C830.853 1107.37 835.841 1133.07 838.781 1148.22C840.048 1154.75 840.935 1159.32 841.316 1161.3Z" stroke="url(#paint3_linear)" stroke-width="1.97868"/>
<path opacity="0.263158" d="M809.58 1159.55C720.279 1163.06 633.121 1144.58 555.67 1087.59L474.286 517.409L1044.76 438.106C1120.94 496.802 1163.4 574.639 1184.69 661.428C1172.93 662.98 1068.22 676.709 963.768 690.403C908.633 697.631 853.572 704.848 812.294 710.259L762.43 716.795L748.464 718.626L744.785 719.108L743.842 719.231L743.604 719.263L743.543 719.27L743.528 719.272C743.525 719.273 743.523 719.273 743.652 720.254L743.523 719.273L742.531 719.403L742.673 720.394C745.416 739.592 751.418 779.013 757.856 821.301C758.374 824.701 758.894 828.119 759.416 831.547C766.428 877.617 773.686 925.409 777.634 953.053C781.585 980.711 789.531 1032.02 796.53 1076.71C801.006 1105.29 805.094 1131.15 807.503 1146.39C808.542 1152.96 809.269 1157.56 809.58 1159.55Z" stroke="url(#paint4_linear)" stroke-width="1.97868"/>
<path opacity="0.315789" d="M777.733 1156.62C688.363 1157.01 601.904 1135.5 526.489 1075.84L465.053 503.168L1037.95 443.821C1112.03 505.141 1151.75 584.411 1170 671.891C1158.19 673.031 1053.07 683.098 948.201 693.138C892.847 698.438 837.567 703.729 796.126 707.696L746.064 712.488L732.043 713.83L728.349 714.183L727.402 714.274L727.163 714.297L727.102 714.303L727.087 714.304C727.084 714.304 727.082 714.304 727.176 715.289L727.082 714.304L726.086 714.4L726.193 715.395C728.265 734.679 732.888 774.29 737.847 816.782C738.245 820.194 738.645 823.624 739.046 827.065C744.447 873.352 750.033 921.367 753.013 949.133C755.996 976.912 762.147 1028.47 767.582 1073.37C771.058 1102.09 774.241 1128.08 776.117 1143.39C776.925 1150 777.491 1154.62 777.733 1156.62Z" stroke="url(#paint5_linear)" stroke-width="1.97868"/>
<path opacity="0.368421" d="M745.816 1152.51C656.487 1149.78 570.831 1125.26 497.544 1063.01L456.132 488.539L1030.75 449.222C1102.65 513.09 1139.58 593.698 1154.76 681.762C1142.92 682.489 1037.51 688.881 932.355 695.255C876.85 698.619 821.419 701.979 779.865 704.497L729.666 707.538L715.606 708.39L711.903 708.615L710.953 708.672L710.713 708.687L710.653 708.69L710.638 708.691C710.634 708.691 710.632 708.692 710.692 709.679L710.632 708.692L709.633 708.752L709.706 709.75C711.103 729.093 714.34 768.837 717.813 811.471C718.092 814.898 718.373 818.345 718.654 821.8C722.436 868.248 726.343 916.429 728.353 944.282C730.364 972.148 734.711 1023.89 738.576 1068.95C741.048 1097.77 743.322 1123.86 744.662 1139.23C745.24 1145.86 745.644 1150.5 745.816 1152.51Z" stroke="url(#paint6_linear)" stroke-width="1.97868"/>
<path opacity="0.421053" d="M713.87 1147.21C624.691 1141.36 539.943 1113.87 468.873 1049.1L447.535 473.534L1023.17 454.295C1092.8 520.633 1126.89 602.481 1139 691.021C1127.14 691.335 1021.57 694.044 916.253 696.744C860.665 698.169 805.15 699.592 763.534 700.658L713.259 701.946L699.178 702.307L695.469 702.402L694.518 702.426L694.278 702.432L694.217 702.434L694.202 702.434C694.199 702.434 694.197 702.435 694.222 703.424L694.197 702.435L693.196 702.46L693.234 703.46C693.955 722.84 695.804 762.672 697.786 805.402C697.946 808.837 698.106 812.291 698.266 815.755C700.425 862.306 702.648 910.594 703.684 938.5C704.722 966.419 707.261 1018.28 709.551 1063.45C711.015 1092.34 712.378 1118.49 713.18 1133.9C713.526 1140.54 713.769 1145.19 713.87 1147.21Z" stroke="url(#paint7_linear)" stroke-width="1.97868"/>
<path opacity="0.473684" d="M681.938 1140.72C593.016 1131.77 509.279 1101.33 440.513 1034.12L439.275 458.164L1015.23 459.027C1082.5 527.754 1113.72 610.743 1122.73 699.651C1110.86 699.551 1005.26 698.574 899.918 697.597C844.313 697.081 788.784 696.566 747.155 696.179L696.866 695.711L682.781 695.581L679.071 695.546L678.12 695.537L677.879 695.535L677.819 695.534L677.804 695.534C677.8 695.534 677.799 695.534 677.789 696.523L677.799 695.534L676.798 695.525L676.8 696.526C676.845 715.919 677.302 755.791 677.792 798.564C677.831 802.003 677.871 805.46 677.911 808.927C678.443 855.525 678.979 903.862 679.042 931.787C679.104 959.725 679.832 1011.64 680.544 1056.87C680.999 1085.79 681.448 1111.97 681.712 1127.4C681.826 1134.05 681.906 1138.71 681.938 1140.72Z" stroke="url(#paint8_linear)" stroke-width="1.97868"/>
<path opacity="0.526316" d="M650.059 1133.05C561.504 1121 478.88 1087.66 412.502 1018.09L431.365 442.443L1006.94 463.406C1071.77 534.439 1100.07 618.466 1105.97 707.634C1094.12 707.12 988.618 702.459 883.371 697.806C827.818 695.35 772.34 692.896 730.75 691.057L680.508 688.835L666.437 688.212L662.73 688.048L661.78 688.006L661.54 687.996L661.479 687.993L661.464 687.992C661.461 687.992 661.459 687.992 661.415 688.981L661.459 687.992L660.459 687.948L660.426 688.948C659.795 708.333 658.859 748.202 657.856 790.971C657.776 794.405 657.695 797.858 657.614 801.32C656.52 847.908 655.368 896.234 654.456 924.144C653.544 952.068 652.459 1003.98 651.592 1049.2C651.038 1078.12 650.573 1104.3 650.299 1119.73C650.18 1126.38 650.098 1131.04 650.059 1133.05Z" stroke="url(#paint9_linear)" stroke-width="1.97868"/>
<path opacity="0.578947" d="M618.275 1124.2C530.195 1109.07 448.785 1072.87 384.875 1001.02L423.817 426.381L998.311 467.418C1060.62 540.671 1085.97 625.634 1088.76 714.954C1076.93 714.027 971.656 705.686 866.636 697.363C811.202 692.97 755.844 688.582 714.343 685.292L664.21 681.318L650.169 680.205L646.47 679.912L645.522 679.836L645.282 679.817L645.221 679.813L645.206 679.811C645.203 679.811 645.201 679.811 645.123 680.797L645.201 679.811L644.203 679.732L644.136 680.73C642.828 700.079 640.502 739.887 638.008 782.589C637.807 786.022 637.605 789.474 637.403 792.936C634.684 839.457 631.847 887.714 629.961 915.575C628.074 943.449 625.179 995.291 622.734 1040.46C621.171 1069.34 619.793 1095.49 618.98 1110.9C618.63 1117.54 618.385 1122.19 618.275 1124.2Z" stroke="url(#paint10_linear)" stroke-width="1.97868"/>
<path opacity="0.631579" d="M586.628 1114.18C499.13 1095.98 419.033 1056.96 357.669 982.924L416.642 409.992L989.354 471.054C1049.07 546.437 1071.44 632.233 1071.11 721.596C1059.32 720.256 954.399 708.246 849.734 696.263C794.488 689.938 739.316 683.621 697.956 678.885L647.991 673.163L633.997 671.561L630.311 671.139L629.366 671.031L629.127 671.003L629.067 670.996L629.052 670.995C629.048 670.994 629.047 670.994 628.934 671.977L629.047 670.994L628.052 670.88L627.95 671.876C625.967 691.169 622.254 730.876 618.27 773.47C617.95 776.89 617.628 780.329 617.305 783.777C612.964 830.176 608.445 878.304 605.588 906.082C602.73 933.874 598.027 985.583 594.007 1030.63C591.437 1059.45 589.147 1085.53 587.797 1100.9C587.215 1107.53 586.808 1112.17 586.628 1114.18Z" stroke="url(#paint11_linear)" stroke-width="1.97868"/>
<path opacity="0.684211" d="M555.159 1102.98C468.349 1081.74 389.663 1039.94 330.92 963.814L409.852 393.289L980.084 474.301C1037.14 551.722 1056.5 638.247 1053.04 727.544C1041.31 725.793 936.873 710.13 832.689 694.501C777.698 686.252 722.78 678.013 681.61 671.836L631.876 664.374L617.946 662.284L614.277 661.734L613.337 661.593L613.098 661.557L613.039 661.548L613.024 661.546C613.02 661.545 613.019 661.545 612.872 662.523L613.019 661.545L612.029 661.397L611.892 662.388C609.237 681.6 604.14 721.154 598.672 763.583C598.233 766.99 597.791 770.415 597.348 773.85C591.391 820.069 585.194 868.01 581.369 895.671C577.543 923.347 571.038 974.86 565.449 1019.74C561.875 1048.45 558.676 1074.43 556.79 1089.75C555.978 1096.35 555.409 1100.97 555.159 1102.98Z" stroke="url(#paint12_linear)" stroke-width="1.97868"/>
<path opacity="0.736842" d="M523.908 1090.61C437.892 1066.36 360.712 1021.84 304.662 943.709L403.457 376.287L970.515 477.15C1024.83 556.515 1041.16 643.663 1034.59 732.784C1022.92 730.626 919.1 711.327 815.525 692.072C760.854 681.908 706.258 671.758 665.329 664.148L615.885 654.955L602.037 652.38L598.389 651.702L597.454 651.528L597.217 651.484L597.158 651.473L597.143 651.47C597.14 651.47 597.138 651.469 596.957 652.442L597.138 651.469L596.154 651.286L595.982 652.273C592.659 671.38 586.184 710.732 579.239 752.944C578.681 756.334 578.12 759.742 577.558 763.159C569.991 809.142 562.125 856.837 557.337 884.348C552.547 911.873 544.249 963.128 537.097 1007.79C532.523 1036.35 528.419 1062.21 526 1077.45C524.957 1084.02 524.227 1088.62 523.908 1090.61Z" stroke="url(#paint13_linear)" stroke-width="1.97868"/>
<path opacity="0.789474" d="M492.916 1077.09C407.799 1049.85 332.22 1002.67 278.931 922.626L397.468 358.997L960.66 479.59C1012.17 560.801 1025.45 648.466 1015.78 737.304C1004.19 734.739 901.103 711.829 798.264 688.971C743.982 676.906 689.772 664.856 649.134 655.822L600.041 644.91L586.291 641.853L582.669 641.048L581.741 640.842L581.506 640.789L581.447 640.776L581.432 640.773C581.429 640.772 581.427 640.772 581.212 641.738L581.427 640.772L580.45 640.555L580.244 641.534C576.256 660.514 568.412 699.616 559.997 741.56C559.322 744.928 558.642 748.314 557.961 751.71C548.794 797.401 539.268 844.793 533.523 872.12C527.776 899.461 517.693 950.395 508.987 994.78C503.419 1023.17 498.415 1048.86 495.466 1064.01C494.194 1070.54 493.305 1075.11 492.916 1077.09Z" stroke="url(#paint14_linear)" stroke-width="1.97868"/>
<path opacity="0.842105" d="M462.223 1062.42C378.109 1032.23 304.222 982.437 253.759 900.584L391.894 341.436L950.535 481.61C999.18 564.57 1009.39 652.645 996.624 741.091C985.135 738.123 882.909 711.629 780.93 685.196C727.102 671.244 673.346 657.309 633.048 646.863L584.366 634.244L570.731 630.709L567.14 629.778L566.219 629.539L565.986 629.479L565.927 629.464L565.912 629.46C565.909 629.459 565.908 629.459 565.659 630.416L565.908 629.459L564.939 629.208L564.699 630.179C560.05 649.009 550.847 687.813 540.973 729.438C540.181 732.78 539.384 736.141 538.584 739.511C527.828 784.853 516.654 831.884 509.959 858.994C503.261 886.118 491.407 936.669 481.157 980.723C474.602 1008.9 468.704 1034.41 465.228 1049.44C463.729 1055.92 462.681 1060.46 462.223 1062.42Z" stroke="url(#paint15_linear)" stroke-width="1.97868"/>
<path opacity="0.894737" d="M431.869 1046.62C348.86 1013.51 276.756 961.168 229.18 877.604L386.745 323.617L940.153 483.202C985.874 567.809 993.006 656.187 977.158 744.134C965.781 740.767 864.542 710.721 763.547 680.745C710.239 664.923 657.002 649.121 617.092 637.275L568.88 622.964L555.378 618.956L551.821 617.9L550.909 617.629L550.678 617.561L550.62 617.544L550.605 617.539C550.602 617.538 550.601 617.538 550.319 618.486L550.601 617.538L549.641 617.253L549.367 618.216C544.065 636.87 533.514 675.324 522.195 716.575C521.285 719.891 520.371 723.225 519.453 726.569C507.121 771.509 494.313 818.121 486.675 844.981C479.035 871.854 465.424 921.961 453.643 965.63C446.108 993.558 439.324 1018.85 435.325 1033.75C433.601 1040.18 432.395 1044.67 431.869 1046.62Z" stroke="url(#paint16_linear)" stroke-width="1.97868"/>
<path opacity="0.947368" d="M401.893 1029.69C320.09 993.702 249.857 938.88 205.226 853.707L382.029 305.556L929.531 484.358C972.271 570.509 976.314 659.082 957.407 746.422C946.154 742.66 846.025 709.099 746.138 675.617C693.414 657.944 640.762 640.293 601.29 627.062L553.607 611.077L540.252 606.6L536.734 605.421L535.832 605.118L535.604 605.042L535.547 605.023L535.532 605.018C535.529 605.017 535.527 605.016 535.213 605.954L535.527 605.016L534.578 604.698L534.271 605.651C528.321 624.109 516.435 662.171 503.683 703.001C502.658 706.284 501.627 709.584 500.594 712.894C486.701 757.376 472.274 803.513 463.704 830.09C455.13 856.68 439.778 906.281 426.48 949.513C417.976 977.161 410.313 1002.2 405.796 1016.95C403.849 1023.31 402.487 1027.77 401.893 1029.69Z" stroke="url(#paint17_linear)" stroke-width="1.97868"/>
<path d="M372.335 1011.66C291.838 972.833 223.561 915.594 181.93 828.915L377.755 287.268L918.683 485.068C958.391 572.659 959.34 661.319 937.396 747.946C926.281 743.793 827.385 706.759 728.727 669.811C676.652 650.308 624.648 630.831 585.662 616.23L538.565 598.591L525.375 593.651L521.9 592.349L521.01 592.016L520.784 591.931L520.728 591.91L520.713 591.905C520.71 591.903 520.709 591.903 520.362 592.829L520.709 591.903L519.771 591.552L519.431 592.493C512.841 610.732 499.633 648.356 485.464 688.717C484.325 691.962 483.18 695.224 482.031 698.496C466.594 742.466 450.566 788.071 441.074 814.333C431.577 840.608 414.504 889.643 399.705 932.384C390.241 959.718 381.709 984.471 376.68 999.062C374.512 1005.35 372.995 1009.75 372.335 1011.66Z" stroke="url(#paint18_linear)" stroke-width="1.97868"/>
<defs>
<linearGradient id="paint0_linear" x1="710.271" y1="213.138" x2="315.369" y2="926.108" gradientUnits="userSpaceOnUse">
<stop stop-color="#9E00FF"/>
<stop offset="1" stop-color="#E9234C"/>
</linearGradient>
<linearGradient id="paint1_linear" x1="712.28" y1="207.612" x2="292.737" y2="906.365" gradientUnits="userSpaceOnUse">
<stop stop-color="#9E00FF"/>
<stop offset="1" stop-color="#E9234C"/>
</linearGradient>
<linearGradient id="paint2_linear" x1="714.289" y1="202.085" x2="270.616" y2="885.77" gradientUnits="userSpaceOnUse">
<stop stop-color="#9E00FF"/>
<stop offset="1" stop-color="#E9234C"/>
</linearGradient>
<linearGradient id="paint3_linear" x1="716.299" y1="196.558" x2="249.035" y2="864.343" gradientUnits="userSpaceOnUse">
<stop stop-color="#9E00FF"/>
<stop offset="1" stop-color="#E9234C"/>
</linearGradient>
<linearGradient id="paint4_linear" x1="718.308" y1="191.031" x2="228.024" y2="842.102" gradientUnits="userSpaceOnUse">
<stop stop-color="#9E00FF"/>
<stop offset="1" stop-color="#E9234C"/>
</linearGradient>
<linearGradient id="paint5_linear" x1="720.317" y1="185.504" x2="207.61" y2="819.068" gradientUnits="userSpaceOnUse">
<stop stop-color="#9E00FF"/>
<stop offset="1" stop-color="#E9234C"/>
</linearGradient>
<linearGradient id="paint6_linear" x1="722.327" y1="179.977" x2="187.82" y2="795.262" gradientUnits="userSpaceOnUse">
<stop stop-color="#9E00FF"/>
<stop offset="1" stop-color="#E9234C"/>
</linearGradient>
<linearGradient id="paint7_linear" x1="724.336" y1="174.45" x2="168.682" y2="770.706" gradientUnits="userSpaceOnUse">
<stop stop-color="#9E00FF"/>
<stop offset="1" stop-color="#E9234C"/>
</linearGradient>
<linearGradient id="paint8_linear" x1="726.345" y1="168.924" x2="150.221" y2="745.424" gradientUnits="userSpaceOnUse">
<stop stop-color="#9E00FF"/>
<stop offset="1" stop-color="#E9234C"/>
</linearGradient>
<linearGradient id="paint9_linear" x1="728.355" y1="163.397" x2="132.462" y2="719.44" gradientUnits="userSpaceOnUse">
<stop stop-color="#9E00FF"/>
<stop offset="1" stop-color="#E9234C"/>
</linearGradient>
<linearGradient id="paint10_linear" x1="730.364" y1="157.87" x2="115.429" y2="692.777" gradientUnits="userSpaceOnUse">
<stop stop-color="#9E00FF"/>
<stop offset="1" stop-color="#E9234C"/>
</linearGradient>
<linearGradient id="paint11_linear" x1="732.374" y1="152.343" x2="99.1447" y2="665.464" gradientUnits="userSpaceOnUse">
<stop stop-color="#9E00FF"/>
<stop offset="1" stop-color="#E9234C"/>
</linearGradient>
<linearGradient id="paint12_linear" x1="734.383" y1="146.816" x2="83.6323" y2="637.525" gradientUnits="userSpaceOnUse">
<stop stop-color="#9E00FF"/>
<stop offset="1" stop-color="#E9234C"/>
</linearGradient>
<linearGradient id="paint13_linear" x1="736.392" y1="141.289" x2="68.9124" y2="608.989" gradientUnits="userSpaceOnUse">
<stop stop-color="#9E00FF"/>
<stop offset="1" stop-color="#E9234C"/>
</linearGradient>
<linearGradient id="paint14_linear" x1="738.402" y1="135.762" x2="55.0059" y2="579.882" gradientUnits="userSpaceOnUse">
<stop stop-color="#9E00FF"/>
<stop offset="1" stop-color="#E9234C"/>
</linearGradient>
<linearGradient id="paint15_linear" x1="740.411" y1="130.235" x2="41.9322" y2="550.234" gradientUnits="userSpaceOnUse">
<stop stop-color="#9E00FF"/>
<stop offset="1" stop-color="#E9234C"/>
</linearGradient>
<linearGradient id="paint16_linear" x1="742.42" y1="124.708" x2="29.7092" y2="520.075" gradientUnits="userSpaceOnUse">
<stop stop-color="#9E00FF"/>
<stop offset="1" stop-color="#E9234C"/>
</linearGradient>
<linearGradient id="paint17_linear" x1="744.43" y1="119.182" x2="18.3548" y2="489.434" gradientUnits="userSpaceOnUse">
<stop stop-color="#9E00FF"/>
<stop offset="1" stop-color="#E9234C"/>
</linearGradient>
<linearGradient id="paint18_linear" x1="746.439" y1="113.655" x2="7.88474" y2="458.342" gradientUnits="userSpaceOnUse">
<stop stop-color="#9E00FF"/>
<stop offset="1" stop-color="#E9234C"/>
</linearGradient>
</defs>
</svg>
